<?xml version="1.0" encoding="utf-8"?>
<!-- Generator: Adobe Illustrator 26.0.2, SVG Export Plug-In . SVG Version: 6.00 Build 0)  -->
<svg version="1.1" id="Capa_1" xmlns="http://www.w3.org/2000/svg" xmlns:xlink="http://www.w3.org/1999/xlink" x="0px" y="0px"
	 viewBox="0 0 512 322.1" style="enable-background:new 0 0 512 322.1;" xml:space="preserve">
<style type="text/css">
	.st0{fill:#FD4755;}
</style>
<path class="st0" d="M491.7,196.6c0.4-0.4,0.8-0.9,1.2-1.3c0.3-0.3,0.5-0.6,0.8-0.8c0.5-0.5,0.9-1,1.4-1.6c0.2-0.2,0.3-0.4,0.5-0.6
	c0.6-0.7,1.2-1.4,1.7-2.2c0.2-0.3,0.4-0.6,0.7-0.9c0.3-0.5,0.7-0.9,1-1.4c0.2-0.3,0.5-0.7,0.7-1c0.3-0.4,0.6-0.9,0.9-1.4
	c0.2-0.4,0.5-0.7,0.7-1.1c0.3-0.5,0.6-0.9,0.8-1.4c0.2-0.4,0.4-0.7,0.7-1.1c0.3-0.5,0.5-1,0.8-1.5c0.2-0.4,0.4-0.7,0.6-1.1
	c0.4-0.8,0.8-1.7,1.2-2.5c0.2-0.4,0.3-0.7,0.5-1.1c0.2-0.5,0.5-1.1,0.7-1.6c0.2-0.4,0.3-0.9,0.5-1.3c0.2-0.5,0.4-1,0.6-1.5
	c0.2-0.5,0.3-0.9,0.5-1.4c0.2-0.5,0.3-1,0.5-1.5c0.1-0.5,0.3-0.9,0.4-1.4c0.1-0.5,0.3-1,0.4-1.5c0.1-0.5,0.3-0.9,0.4-1.4
	c0.1-0.6,0.3-1.2,0.4-1.7c0.1-0.5,0.2-1.1,0.3-1.6c0.1-0.7,0.3-1.3,0.4-2c0-0.1,0-0.3,0.1-0.4c0-0.3,0.1-0.6,0.1-0.9
	c0.1-1,0.3-1.9,0.4-2.9c0-0.2,0-0.3,0.1-0.5c0.1-1,0.2-1.9,0.3-2.9c0-0.1,0-0.3,0-0.4c0.1-1.1,0.1-2.2,0.2-3.3c0-0.2,0-0.4,0-0.5
	c0-1.1,0-2.3,0-3.4c-0.2-14.7-10-29.4-25.1-28.8c0,0,0,0,0,0c0,0,0,0,0,0c-7.5,0.3-14.7,3.8-22.1,5.1c-6.4,1.1-15,2.7-23.7,3.2
	c-11.2,0.7-22.6-0.1-30.1-5.4c-14.4-10.1-7.2-34.6-21.7-44.4c-3.5-2.4-7.3-2.9-11.2-2.7c-5.6,0.3-11.4,2.2-16.9,2.5
	c-1,0.1-1.9,0.1-2.9,0c-10.9-0.7-20.6-8.9-28.7-16c-14.2-12.4-12.9-33.8-29.1-45.5c-0.5-0.4-1-0.7-1.5-1.1c-0.2-0.1-0.4-0.3-0.6-0.4
	c-0.4-0.3-0.8-0.5-1.2-0.7c-0.3-0.2-0.6-0.4-0.8-0.5c0,0-0.1,0-0.1-0.1c0,0-0.1,0-0.1-0.1c-0.4-0.2-0.8-0.4-1.2-0.7
	c-0.2-0.1-0.3-0.2-0.5-0.3c-0.2-0.1-0.3-0.2-0.5-0.3c-0.1,0-0.1-0.1-0.2-0.1c-0.4-0.2-0.8-0.4-1.2-0.6c-0.1-0.1-0.2-0.1-0.3-0.2
	c-0.2-0.1-0.4-0.2-0.7-0.3c-0.1,0-0.1-0.1-0.2-0.1c-0.4-0.2-0.8-0.4-1.2-0.5c0,0-0.1,0-0.1-0.1c-0.3-0.1-0.6-0.3-0.8-0.4
	c-0.1,0-0.2-0.1-0.2-0.1c-0.4-0.2-0.8-0.3-1.2-0.5c-0.3-0.1-0.6-0.3-1-0.4c-0.1,0-0.2-0.1-0.3-0.1c-0.4-0.1-0.7-0.3-1.1-0.4
	c-0.3-0.1-0.7-0.2-1-0.4c-0.1,0-0.2-0.1-0.3-0.1c-0.4-0.1-0.7-0.2-1.1-0.3c-0.4-0.1-0.7-0.2-1.1-0.3c-0.1,0-0.2-0.1-0.3-0.1
	c-0.3-0.1-0.7-0.2-1-0.3c-0.4-0.1-0.7-0.2-1.1-0.3c-0.1,0-0.2-0.1-0.4-0.1c-0.3-0.1-0.7-0.2-1-0.2c-0.4-0.1-0.7-0.2-1.1-0.2
	c-0.1,0-0.3-0.1-0.4-0.1c-0.3-0.1-0.7-0.1-1-0.2c-0.4-0.1-0.7-0.1-1.1-0.2c-0.1,0-0.3-0.1-0.4-0.1c-0.3-0.1-0.7-0.1-1-0.1
	c-0.4-0.1-0.7-0.1-1.1-0.1c-0.2,0-0.3,0-0.5-0.1c-0.3,0-0.7-0.1-1-0.1c-0.3,0-0.7-0.1-1-0.1c-0.2,0-0.4,0-0.5,0c-0.3,0-0.7,0-1-0.1
	c-0.3,0-0.6,0-0.9-0.1c-0.2,0-0.4,0-0.6,0c-0.4,0-0.7,0-1.1,0c-0.3,0-0.6,0-0.8,0c-0.2,0-0.4,0-0.7,0c-0.4,0-0.7,0-1.1,0
	c-0.1,0-0.3,0-0.4,0c-0.1,0-0.2,0-0.3,0c-0.3,0-0.5,0-0.8,0c-0.4,0-0.7,0-1.1,0.1c-0.2,0-0.3,0-0.5,0c-0.1,0-0.2,0-0.3,0
	c-0.2,0-0.4,0-0.7,0c-0.4,0-0.9,0.1-1.3,0.1c-0.2,0-0.3,0-0.5,0c-0.1,0-0.2,0-0.3,0c-0.2,0-0.3,0-0.5,0.1c-0.3,0-0.5,0.1-0.8,0.1
	c-0.5,0.1-1,0.1-1.5,0.2c0,0,0,0,0,0c0,0,0,0-0.1,0c-0.1,0-0.2,0-0.3,0c-0.2,0-0.4,0.1-0.6,0.1c0,0-0.1,0-0.1,0
	c-0.4,0.1-0.7,0.1-1.1,0.2c-0.2,0-0.3,0.1-0.5,0.1c0,0-0.1,0-0.1,0c-0.1,0-0.1,0-0.2,0c-0.1,0-0.3,0.1-0.4,0.1c-0.1,0-0.3,0-0.4,0.1
	c-0.5,0.1-1,0.2-1.5,0.3c-0.1,0-0.2,0.1-0.4,0.1c0,0-0.1,0-0.1,0c-0.2,0.1-0.4,0.1-0.7,0.2c-0.3,0.1-0.6,0.2-0.9,0.2
	c-0.1,0-0.2,0.1-0.4,0.1c0,0-0.1,0-0.1,0c0,0,0,0-0.1,0c-0.5,0.1-1,0.3-1.5,0.5c0,0,0,0-0.1,0c-0.2,0.1-0.4,0.1-0.6,0.2
	c-0.1,0-0.2,0.1-0.3,0.1c-0.2,0.1-0.4,0.1-0.6,0.2c-0.1,0-0.2,0.1-0.2,0.1c-0.2,0.1-0.3,0.1-0.5,0.2c-0.1,0-0.1,0-0.2,0.1
	c-0.3,0.1-0.6,0.2-0.8,0.3c-0.4,0.1-0.7,0.3-1.1,0.4c-0.1,0-0.2,0.1-0.3,0.1c-0.2,0.1-0.5,0.2-0.7,0.3c-0.1,0-0.1,0-0.2,0.1
	c0,0,0,0,0,0c-0.1,0-0.2,0.1-0.3,0.1c-0.3,0.1-0.6,0.2-0.8,0.4c-0.3,0.1-0.6,0.3-1,0.4c0,0-0.1,0-0.1,0c-0.1,0.1-0.3,0.1-0.4,0.2
	c-0.3,0.2-0.7,0.3-1,0.5c-0.3,0.1-0.6,0.3-0.9,0.5c-0.1,0.1-0.3,0.2-0.4,0.2c-0.3,0.2-0.7,0.4-1,0.5c0,0-0.1,0-0.1,0
	c-0.2,0.1-0.4,0.2-0.6,0.4c-0.1,0.1-0.3,0.2-0.4,0.2c0,0,0,0,0,0c0,0-0.1,0.1-0.1,0.1c-0.4,0.3-0.9,0.5-1.3,0.8
	c-0.3,0.2-0.6,0.4-0.9,0.5c-0.5,0.3-1,0.6-1.4,1c-0.1,0-0.1,0.1-0.2,0.1c-0.2,0.1-0.4,0.2-0.5,0.4c-0.4,0.3-0.8,0.6-1.2,0.8
	c-0.2,0.1-0.3,0.2-0.5,0.4c-0.2,0.2-0.5,0.4-0.7,0.5c-0.2,0.1-0.4,0.3-0.5,0.4c-0.3,0.3-0.6,0.5-1,0.8c0,0,0,0,0,0c0,0,0,0,0,0
	c0,0,0,0,0,0c0,0,0,0,0,0c-0.3,0.2-0.6,0.4-0.8,0.7c-9.6,8.2-16.9,19.3-27.1,26.6c-5.4,3.9-11.7,6.3-18.1,6.5c-0.3,0-0.6,0-0.9,0
	c-0.4,0-0.8,0-1.2,0c-0.3,0-0.5,0-0.8-0.1c-0.4,0-0.8-0.1-1.2-0.1c-0.3,0-0.5-0.1-0.8-0.1c-0.4-0.1-0.8-0.1-1.3-0.2
	c-0.3-0.1-0.5-0.1-0.7-0.2c-0.4-0.1-0.8-0.2-1.3-0.3c-0.2-0.1-0.5-0.1-0.7-0.2c-0.4-0.1-0.9-0.3-1.3-0.5c-0.2-0.1-0.4-0.2-0.6-0.3
	c-0.5-0.2-0.9-0.4-1.4-0.7c-0.2-0.1-0.3-0.2-0.5-0.2c-0.6-0.3-1.2-0.7-1.9-1.1c-9.7-6.4-15-14.3-26.9-16.9c-0.4-0.1-0.7-0.1-1.1-0.2
	c-0.7-0.1-1.4-0.2-2.1-0.2c-1.8-0.1-3.5,0.1-5.3,0.5c-0.7,0.2-1.4,0.3-2.1,0.5c-0.2,0.1-0.4,0.1-0.6,0.2c-0.7,0.2-1.3,0.4-2,0.6
	c-0.2,0.1-0.3,0.1-0.5,0.2c-0.5,0.2-1.1,0.4-1.6,0.6c-0.2,0.1-0.4,0.2-0.5,0.2c-0.6,0.3-1.3,0.6-1.9,0.9c-0.2,0.1-0.3,0.2-0.5,0.3
	c-0.6,0.3-1.1,0.6-1.7,0.9c-0.1,0.1-0.2,0.1-0.3,0.2c-0.6,0.4-1.3,0.8-1.9,1.2c-0.1,0.1-0.3,0.2-0.4,0.3c-1.3,0.8-2.6,1.7-3.8,2.7
	c-0.1,0.1-0.2,0.1-0.3,0.2c-0.6,0.5-1.2,1-1.9,1.5c0,0-0.1,0.1-0.1,0.1c-0.6,0.5-1.1,1-1.7,1.5c-0.1,0.1-0.2,0.2-0.3,0.2
	c-0.1,0.1-0.2,0.1-0.2,0.2c0,0,0,0,0,0C91.5,52.9,80.9,73.1,72.6,88.4c-13.1,23.9-26.2,48-38.3,72.5c0,0,0,0.1,0,0.1
	c-12.5,25.5-23.9,51.5-32.9,78.5c-1,3-2,6.5-0.8,9.4c1,2.4,3.3,3.9,5.5,5.1c7.5,4.2,15.8,6.6,24.3,7.2c5.2,0.4,9.3-4.6,8.2-10
	c-0.4-2.2-0.4-4.6,0.3-6.8c1.8-6,7.8-10.1,13.6-9.4c7.8,0.9,13.5,9.2,21.3,9.9c5.3,0.5,10.3-2.6,15.1-5.1c21.1-10.6,45.6-9,68.9-7.2
	c10,0.8,20.1,1.6,29.4,5.5c9.1,3.9,17,10.5,24.6,17.1c15.7,13.5,31.5,27,45.5,42.4c3.4,3.7,7,7.7,10.7,11.3
	c5.4,5.5,8.9,8.5,15.2,11.7c0,0,0.1,0,0.1,0.1c2,1.1,4.2,1.4,6.2,1c1.5-0.2,3-0.8,4.3-1.7c0.1-0.1,0.2-0.1,0.2-0.2
	c0.1-0.1,0.2-0.1,0.2-0.2c0.9-0.7,1.7-1.6,2.4-2.5c1-1.4,1.7-3.1,2-5.1c0.9-5.9,4-11.6,8.1-15.8c4-4,8.5-7.6,13.3-10.9
	c12.8-8.9,27.7-16,39.9-24.1c3.8-2.5,7.6-4.8,11.4-7c26.3-15,54.8-23.5,82.9-34.1c0.3-0.1,0.7-0.3,1-0.4c0.6-0.2,1.1-0.4,1.7-0.7
	c0.4-0.2,0.8-0.3,1.3-0.5c0.5-0.2,1-0.4,1.5-0.6c0.4-0.2,0.8-0.4,1.3-0.6c0.5-0.2,1-0.4,1.5-0.7c0.4-0.2,0.8-0.4,1.2-0.6
	c0.5-0.2,1-0.5,1.5-0.8c0.4-0.2,0.7-0.4,1.1-0.6c0.6-0.3,1.2-0.6,1.8-0.9c0.3-0.1,0.5-0.3,0.8-0.4c0.8-0.5,1.7-0.9,2.5-1.4
	c0.3-0.2,0.5-0.3,0.8-0.5c0.6-0.3,1.2-0.7,1.7-1c0.3-0.2,0.6-0.4,1-0.6c0.5-0.3,1-0.6,1.5-1c0.3-0.2,0.7-0.4,1-0.7
	c0.5-0.3,1-0.7,1.5-1c0.3-0.2,0.6-0.4,0.9-0.7c0.5-0.4,1-0.8,1.6-1.2c0.3-0.2,0.5-0.4,0.8-0.6c0.8-0.6,1.5-1.2,2.2-1.8
	c0.1-0.1,0.3-0.2,0.4-0.4c0.6-0.5,1.2-1,1.8-1.5c0.3-0.2,0.5-0.5,0.8-0.7c0.4-0.4,0.9-0.8,1.3-1.2c0.3-0.3,0.6-0.5,0.9-0.8
	c0.4-0.4,0.8-0.8,1.2-1.2C491.1,197.1,491.4,196.9,491.7,196.6z"/>
</svg>
